<svg xmlns="http://www.w3.org/2000/svg" viewBox="0 0 512 512">
  <!-- Modern Wolf Head Silhouette - Transparent Background -->
  <path fill="#FF4500" d="M141.6 228.6c-4.4-12.7-27.9-14.8-32.9-4.9-9.9 19.5-23.7 44.4-23.7 44.4s-14.7-32.6-11.8-67.6c1.1-13.6-6-20.2-14.8-21.7-18.3-3.1-42.5 13.5-47.3 49.3-2.6 19.2.7 54.3 12.8 91.4 12.8 39.1 40.5 76.5 40.5 76.5s-6.9 8.1-15.6 9.8c-12.8 2.5-38.3-2.3-38.3-2.3s32.1 45.4 83.2 59.5c41.3 11.4 86.8 6.4 86.8 6.4s-10.7-31.5-12.5-44.1c-1.3-9.5-2.6-26.6-2.6-26.6s17.3 10.4 33.5 10.4c17.3 0 32.6-12.1 32.6-12.1s-10.4-38.6-47.6-56.5c-37.5-18-42.4-37.5-42.4-112.1 0-77.9 33.8-132.8 33.8-132.8s-42.1 27.7-65.2 64.6c-13.6 21.6-19.1 48-11.8 72.4 2.3 8.1 4 19.5-3.3 26.5-6.6 6.1-9.3 9.4-9.3 9.4z"/>
</svg>
